#N canvas 304 157 689 349 10;
#X obj 308 7 vsl 15 128 0 1024 0 0 empty empty empty 0 -9 0 10 -262144
-1 -1 0 1;
#N canvas 0 22 434 387 registre_decalage 0;
#X obj 39 35 f;
#X obj 74 60 f;
#X obj 110 86 f;
#X obj 145 111 f;
#X obj 181 136 f;
#X obj 217 161 f;
#X obj 252 186 f;
#X obj 288 211 f;
#X obj 324 239 f;
#X obj 39 -28 inlet;
#X obj 333 301 outlet;
#X obj 324 262 outlet;
#X obj 249 301 outlet;
#X obj 291 301 outlet;
#X obj 165 301 outlet;
#X obj 207 301 outlet;
#X obj 81 301 outlet;
#X obj 123 301 outlet;
#X obj 39 301 outlet;
#X obj 39 12 t float bang bang bang bang bbang bang bang bang;
#X connect 0 0 1 1;
#X connect 0 0 18 0;
#X connect 1 0 2 1;
#X connect 1 0 16 0;
#X connect 2 0 3 1;
#X connect 2 0 17 0;
#X connect 3 0 4 1;
#X connect 3 0 14 0;
#X connect 4 0 5 1;
#X connect 4 0 15 0;
#X connect 5 0 6 1;
#X connect 5 0 12 0;
#X connect 6 0 7 1;
#X connect 6 0 13 0;
#X connect 7 0 8 1;
#X connect 7 0 10 0;
#X connect 8 0 11 0;
#X connect 9 0 19 0;
#X connect 19 0 0 0;
#X connect 19 1 1 0;
#X connect 19 2 2 0;
#X connect 19 3 3 0;
#X connect 19 4 4 0;
#X connect 19 5 5 0;
#X connect 19 6 6 0;
#X connect 19 7 7 0;
#X connect 19 8 8 0;
#X restore 308 -23 pd registre_decalage ______;
#X obj 327 7 vsl 15 128 0 1024 0 0 empty empty empty 0 -9 0 10 -262144
-1 -1 0 1;
#X obj 347 7 vsl 15 128 0 1024 0 0 empty empty empty 0 -9 0 10 -262144
-1 -1 0 1;
#X obj 367 7 vsl 15 128 0 1024 0 0 empty empty empty 0 -9 0 10 -262144
-1 -1 0 1;
#X obj 387 7 vsl 15 128 0 1024 0 0 empty empty empty 0 -9 0 10 -262144
-1 -1 0 1;
#X obj 407 7 vsl 15 128 0 1024 0 0 empty empty empty 0 -9 0 10 -262144
-1 -1 0 1;
#X obj 427 7 vsl 15 128 0 1024 0 0 empty empty empty 0 -9 0 10 -262144
-1 -1 0 1;
#X obj 447 7 vsl 15 128 0 1024 0 0 empty empty empty 0 -9 0 10 -262144
-1 -1 0 1;
#X obj 83 121 s sensorA;
#X obj 308 -47 r sensorA;
#X obj 201 121 s sensorB;
#X obj 488 7 vsl 15 128 0 1024 0 0 empty empty empty 0 -9 0 10 -262144
-1 -1 0 1;
#X obj 507 7 vsl 15 128 0 1024 0 0 empty empty empty 0 -9 0 10 -262144
-1 -1 0 1;
#X obj 527 7 vsl 15 128 0 1024 0 0 empty empty empty 0 -9 0 10 -262144
-1 -1 0 1;
#X obj 547 7 vsl 15 128 0 1024 0 0 empty empty empty 0 -9 0 10 -262144
-1 -1 0 1;
#X obj 567 7 vsl 15 128 0 1024 0 0 empty empty empty 0 -9 0 10 -262144
-1 -1 0 1;
#X obj 587 7 vsl 15 128 0 1024 0 0 empty empty empty 0 -9 0 10 -262144
-1 -1 0 1;
#X obj 607 7 vsl 15 128 0 1024 0 0 empty empty empty 0 -9 0 10 -262144
-1 -1 0 1;
#X obj 627 7 vsl 15 128 0 1024 0 0 empty empty empty 0 -9 0 10 -262144
-1 -1 0 1;
#X obj 488 -47 r sensorB;
#N canvas 0 22 434 387 registre_decalage 0;
#X obj 39 35 f;
#X obj 74 60 f;
#X obj 110 86 f;
#X obj 145 111 f;
#X obj 181 136 f;
#X obj 217 161 f;
#X obj 252 186 f;
#X obj 288 211 f;
#X obj 324 239 f;
#X obj 39 -28 inlet;
#X obj 333 301 outlet;
#X obj 324 262 outlet;
#X obj 249 301 outlet;
#X obj 291 301 outlet;
#X obj 165 301 outlet;
#X obj 207 301 outlet;
#X obj 81 301 outlet;
#X obj 123 301 outlet;
#X obj 39 301 outlet;
#X obj 39 12 t float bang bang bang bang bbang bang bang bang;
#X connect 0 0 1 1;
#X connect 0 0 18 0;
#X connect 1 0 2 1;
#X connect 1 0 16 0;
#X connect 2 0 3 1;
#X connect 2 0 17 0;
#X connect 3 0 4 1;
#X connect 3 0 14 0;
#X connect 4 0 5 1;
#X connect 4 0 15 0;
#X connect 5 0 6 1;
#X connect 5 0 12 0;
#X connect 6 0 7 1;
#X connect 6 0 13 0;
#X connect 7 0 8 1;
#X connect 7 0 10 0;
#X connect 8 0 11 0;
#X connect 9 0 19 0;
#X connect 19 0 0 0;
#X connect 19 1 1 0;
#X connect 19 2 2 0;
#X connect 19 3 3 0;
#X connect 19 4 4 0;
#X connect 19 5 5 0;
#X connect 19 6 6 0;
#X connect 19 7 7 0;
#X connect 19 8 8 0;
#X restore 488 -23 pd registre_decalage ______;
#X msg 68 -107 close;
#X msg 49 -151 devices;
#X msg 59 -129 open 2;
#X obj 83 90 +;
#X obj 216 68 * 256;
#X obj 201 90 +;
#X obj 49 -78 comport 2 9600;
#X obj 98 68 * 256;
#X obj 83 30 unpack float float float float;
#X obj 49 -47 match 100 254 33 125 nn nn nn nn;
#X obj 49 -24 list split 4;
#X connect 1 0 0 0;
#X connect 1 1 2 0;
#X connect 1 2 3 0;
#X connect 1 3 4 0;
#X connect 1 4 5 0;
#X connect 1 5 6 0;
#X connect 1 6 7 0;
#X connect 1 7 8 0;
#X connect 10 0 1 0;
#X connect 20 0 21 0;
#X connect 21 0 12 0;
#X connect 21 1 13 0;
#X connect 21 2 14 0;
#X connect 21 3 15 0;
#X connect 21 4 16 0;
#X connect 21 5 17 0;
#X connect 21 6 18 0;
#X connect 21 7 19 0;
#X connect 22 0 28 0;
#X connect 23 0 28 0;
#X connect 24 0 28 0;
#X connect 25 0 9 0;
#X connect 26 0 27 1;
#X connect 27 0 11 0;
#X connect 28 0 31 0;
#X connect 29 0 25 1;
#X connect 30 0 25 0;
#X connect 30 1 29 0;
#X connect 30 2 27 0;
#X connect 30 3 26 0;
#X connect 31 0 32 0;
#X connect 32 1 30 0;
