#N canvas 331 106 601 398 10;
#X obj 51 359 outlet~;
#X obj 536 359 outlet~;
#X obj 44 82 xy_coll;
#X obj 44 103 s list_sounds;
#X obj 17 146 s load_all_sounds;
#X msg 44 60 symbol ./medias/_liste.txt;
#X obj 17 9 inlet;
#X obj 17 34 t b b;
#X obj 17 125 delay 1000;
#X obj 255 158 xy_player_simple 0;
#X obj 254 180 xy_player_simple 1;
#X obj 254 201 xy_player_simple 2;
#X obj 256 221 xy_player_simple 3;
#X obj 254 242 xy_player_simple 4;
#X obj 255 261 xy_player_simple 5;
#X obj 255 282 xy_player_simple 6;
#X obj 255 303 xy_player_simple 7;
#X obj 254 324 xy_player_simple 8;
#X obj 255 344 xy_player_simple 9;
#X connect 2 0 3 0;
#X connect 5 0 2 0;
#X connect 6 0 7 0;
#X connect 7 0 8 0;
#X connect 7 1 5 0;
#X connect 8 0 4 0;
#X connect 9 0 0 0;
#X connect 9 1 1 0;
#X connect 10 0 0 0;
#X connect 10 1 1 0;
#X connect 11 0 0 0;
#X connect 11 1 1 0;
#X connect 12 0 0 0;
#X connect 12 1 1 0;
#X connect 13 0 0 0;
#X connect 13 1 1 0;
#X connect 14 0 0 0;
#X connect 14 1 1 0;
#X connect 15 0 0 0;
#X connect 15 1 1 0;
#X connect 16 0 0 0;
#X connect 16 1 1 0;
#X connect 17 0 0 0;
#X connect 17 1 1 0;
#X connect 18 0 0 0;
#X connect 18 1 1 0;
