#N canvas 341 27 300 264 10;
#X obj 14 8 inlet~;
#X obj 65 8 inlet~;
#X obj 14 208 outlet~;
#X obj 65 208 outlet~;
#X obj 111 8 r \$1-volume;
#X obj 111 58 t f f;
#X obj 111 100 pack f 50;
#X obj 181 100 pack f 50;
#X obj 111 122 line~;
#X obj 181 122 line~;
#X obj 65 174 *~;
#X obj 14 174 *~;
#X connect 0 0 11 0;
#X connect 1 0 10 0;
#X connect 4 0 5 0;
#X connect 5 0 6 0;
#X connect 5 1 7 0;
#X connect 6 0 8 0;
#X connect 7 0 9 0;
#X connect 8 0 11 1;
#X connect 9 0 10 1;
#X connect 10 0 3 0;
#X connect 11 0 2 0;
