#N canvas 780 112 272 303 10;
#X obj 27 85 comport 0 9600;
#X msg 27 -10 close;
#X msg 63 32 devices;
#X msg 48 11 open 0;
#X obj 27 113 print;
#X obj 152 193 pack f f f 255;
#X obj 152 -9 vsl 15 128 0 254 0 0 empty empty empty 0 -9 0 10 -257985
-1 -1 12700 1;
#X obj 172 -9 vsl 15 128 0 254 0 0 empty empty empty 0 -9 0 10 -257985
-1 -1 12700 1;
#X obj 192 -9 vsl 15 128 0 254 0 0 empty empty empty 0 -9 0 10 -257985
-1 -1 12700 1;
#X obj 172 132 t b f;
#X obj 192 155 t b f;
#X obj 152 217 s AOUT;
#X obj 71 54 r AOUT;
#X connect 0 0 4 0;
#X connect 1 0 0 0;
#X connect 2 0 0 0;
#X connect 3 0 0 0;
#X connect 5 0 11 0;
#X connect 6 0 5 0;
#X connect 7 0 9 0;
#X connect 8 0 10 0;
#X connect 9 0 5 0;
#X connect 9 1 5 1;
#X connect 10 0 5 0;
#X connect 10 1 5 2;
#X connect 12 0 0 0;
