#N canvas 520 151 392 449 10;
#X msg 100 103 rewind;
#X obj 100 227 textfile;
#X msg 26 211 bang;
#X obj 82 293 until;
#X obj 182 343 + 1;
#X msg 154 185 0;
#X obj 139 343 f 0;
#X obj 139 417 outlet;
#X obj 100 249 symbol;
#X obj 139 386 pack f s;
#X obj 82 313 t b b;
#X msg 136 165 clear;
#X obj 82 8 inlet;
#X msg 119 124 set read \$1 cr \, bang;
#X obj 100 82 delay 1000;
#X obj 82 36 t b b s b b;
#X obj 82 62 delay 1500;
#X msg 119 145 read ./medias/_liste.txt cr;
#X connect 0 0 1 0;
#X connect 1 0 8 0;
#X connect 1 1 3 1;
#X connect 2 0 1 0;
#X connect 3 0 10 0;
#X connect 4 0 6 1;
#X connect 5 0 6 1;
#X connect 6 0 4 0;
#X connect 6 0 9 0;
#X connect 8 0 9 1;
#X connect 9 0 7 0;
#X connect 10 0 6 0;
#X connect 10 1 2 0;
#X connect 11 0 1 0;
#X connect 12 0 15 0;
#X connect 13 0 17 0;
#X connect 14 0 0 0;
#X connect 15 0 16 0;
#X connect 15 1 14 0;
#X connect 15 2 13 0;
#X connect 15 3 11 0;
#X connect 15 4 5 0;
#X connect 16 0 3 0;
#X connect 17 0 1 0;
