#N canvas 107 22 382 581 10;
#X obj 268 41 dbtorms;
#X obj 268 83 line~;
#X obj 253 105 *~;
#X obj 166 106 *~;
#X obj 232 184 dac~;
#X obj 109 17 loadbang;
#X obj 109 243 vsl 20 128 0 100 0 1 empty empty empty 0 -8 0 10 -4034
-1 -1 11500 1;
#X obj 131 243 vsl 20 128 0 100 0 1 empty empty empty 0 -8 0 10 -4034
-1 -1 11500 1;
#X obj 181 41 dbtorms;
#X obj 181 83 line~;
#X msg 109 177 90;
#X obj 181 62 pack 0 50;
#X obj 268 62 pack 0 50;
#X obj 166 17 inlet~;
#X obj 253 17 inlet~;
#X obj 109 378 tgl 42 0 empty empty DSP 48 20 0 20 -4034 -1 -1 1 1
;
#X obj 36 353 loadbang;
#X obj 109 437 t f b;
#X obj 109 496 pipe 200;
#X obj 156 252 vu 19 120 empty empty 35 8 0 8 -66577 -1 0 0;
#X obj 164 152 r volume;
#X obj 164 178 - 100;
#X msg 109 517 \; pd dsp \$1 \;;
#X connect 0 0 12 0;
#X connect 1 0 2 1;
#X connect 2 0 4 1;
#X connect 3 0 4 0;
#X connect 5 0 10 0;
#X connect 6 0 7 0;
#X connect 6 0 8 0;
#X connect 7 0 0 0;
#X connect 8 0 11 0;
#X connect 9 0 3 1;
#X connect 10 0 6 0;
#X connect 11 0 9 0;
#X connect 12 0 1 0;
#X connect 13 0 3 0;
#X connect 14 0 2 0;
#X connect 15 0 17 0;
#X connect 16 0 15 0;
#X connect 17 0 18 0;
#X connect 18 0 22 0;
#X connect 20 0 21 0;
#X connect 21 0 19 0;
#X coords 0 -1 1 1 100 230 1 100 200;
