#N canvas 318 55 522 638 10;
#X obj 13 615 outlet~;
#X obj 257 615 outlet~;
#X obj 113 403 spigot;
#X obj 146 340 select 1;
#X msg 146 366 1;
#X msg 191 365 0;
#X obj 146 318 \$2;
#X text 14 21 \$2 = loop mode;
#X text 14 4 \$1 = sampel selector;
#X obj 15 120 r \$1-play;
#X msg 59 366 stop;
#X obj 308 615 s \$1-endbang;
#X msg 256 365 set 0 \$1;
#X obj 146 120 r players-init;
#X msg 14 366 bang;
#X obj 74 575 table \$1-leftSample;
#X obj 316 574 table \$1-rightSample;
#X obj 13 575 tabplay~;
#X obj 257 574 tabplay~;
#X obj 256 345 soundfiler;
#X obj 301 272 symbol \$1-rightSample;
#X obj 284 250 symbol \$1-leftSample;
#X obj 255 157 route \$1;
#X obj 14 340 select 1;
#X obj 255 120 r list_sounds;
#X obj 255 178 symbol;
#X obj 285 520 symbol \$1-rightSample;
#X obj 45 520 symbol \$1-leftSample;
#X msg 45 541 set \$1;
#X msg 285 541 set \$1;
#X obj 45 460 r load_all_sounds;
#X text 165 460 <-- charger les players;
#X text 14 38 \$3 = maxsize;
#X msg 256 429 0 88408;
#X obj 36 142 r all_off;
#X msg 36 281 0;
#X obj 365 472 print \$1;
#X obj 332 392 route \$1;
#X obj 383 361 r pos;
#X obj 256 304 pack s s s;
#X msg 256 325 read -resize \$1 \$2 \$3;
#X obj 256 199 t s b b;
#X connect 2 0 33 0;
#X connect 3 0 4 0;
#X connect 3 1 5 0;
#X connect 4 0 2 1;
#X connect 5 0 2 1;
#X connect 6 0 3 0;
#X connect 9 0 23 0;
#X connect 10 0 17 0;
#X connect 10 0 18 0;
#X connect 12 0 33 0;
#X connect 13 0 6 0;
#X connect 14 0 17 0;
#X connect 14 0 18 0;
#X connect 17 0 0 0;
#X connect 17 1 2 0;
#X connect 18 0 1 0;
#X connect 18 1 11 0;
#X connect 19 0 12 0;
#X connect 20 0 39 2;
#X connect 21 0 39 1;
#X connect 22 0 25 0;
#X connect 23 0 14 0;
#X connect 23 1 10 0;
#X connect 24 0 22 0;
#X connect 25 0 41 0;
#X connect 26 0 29 0;
#X connect 27 0 28 0;
#X connect 28 0 17 0;
#X connect 29 0 18 0;
#X connect 30 0 27 0;
#X connect 30 0 26 0;
#X connect 33 0 17 0;
#X connect 33 0 18 0;
#X connect 34 0 35 0;
#X connect 35 0 23 0;
#X connect 37 0 36 0;
#X connect 37 0 18 0;
#X connect 37 0 17 0;
#X connect 38 0 37 0;
#X connect 39 0 40 0;
#X connect 40 0 19 0;
#X connect 41 0 39 0;
#X connect 41 1 21 0;
#X connect 41 2 20 0;
#X coords 0 0 1 1 155 35 0;
