#N canvas 265 939 287 302 10;
#X msg 7 100 close;
#X obj 109 173 convert/pd2ascii CR;
#X floatatom 110 71 5 0 255 0 - - -, f 5;
#X msg 51 100 open 0;
#X obj 110 239 comport 0 9600;
#X obj 8 68 select 0 1;
#X obj 8 36 tgl 20 0 empty empty empty 17 7 0 13 -4034 -1 -1 0 1;
#X msg 110 97 list 0 \$1;
#X floatatom 180 72 5 0 255 0 - - -, f 5;
#X msg 180 98 list 1 \$1;
#X text 108 43 value_A;
#X text 179 43 value_B;
#X msg 153 203 devices;
#X connect 0 0 4 0;
#X connect 1 0 4 0;
#X connect 2 0 7 0;
#X connect 3 0 4 0;
#X connect 5 0 0 0;
#X connect 5 1 3 0;
#X connect 6 0 5 0;
#X connect 7 0 1 0;
#X connect 8 0 9 0;
#X connect 9 0 1 0;
#X connect 12 0 4 0;
